{
    "asset" : {
        "generator" : "Khronos glTF Blender I/O v1.1.46",
        "version" : "2.0"
    },
    "scene" : 0,
    "scenes" : [
        {
            "name" : "Scene",
            "nodes" : [
                0,
                1,
                2,
                3
            ]
        }
    ],
    "nodes" : [
        {
            "name" : "Light",
            "rotation" : [
                0.16907575726509094,
                0.7558803558349609,
                -0.27217137813568115,
                0.570947527885437
            ],
            "translation" : [
                4.076245307922363,
                5.903861999511719,
                -1.0054539442062378
            ]
        },
        {
            "name" : "Camera",
            "rotation" : [
                0.483536034822464,
                0.33687159419059753,
                -0.20870360732078552,
                0.7804827094078064
            ],
            "translation" : [
                7.358891487121582,
                4.958309173583984,
                6.925790786743164
            ]
        },
        {
            "mesh" : 0,
            "name" : "Donut"
        },
        {
            "mesh" : 1,
            "name" : "Icing"
        }
    ],
    "materials" : [
        {
            "doubleSided" : true,
            "emissiveFactor" : [
                0,
                0,
                0
            ],
            "name" : "Material.002",
            "pbrMetallicRoughness" : {
                "baseColorFactor" : [
                    0.8000000715255737,
                    0.6009138822555542,
                    0.36473289132118225,
                    1
                ],
                "metallicFactor" : 0,
                "roughnessFactor" : 0.7543860077857971
            }
        },
        {
            "doubleSided" : true,
            "emissiveFactor" : [
                0,
                0,
                0
            ],
            "name" : "Material.001",
            "pbrMetallicRoughness" : {
                "baseColorFactor" : [
                    0.8000000715255737,
                    0.2337665855884552,
                    0.7721081972122192,
                    1
                ],
                "metallicFactor" : 0,
                "roughnessFactor" : 0.7894736528396606
            }
        }
    ],
    "meshes" : [
        {
            "name" : "Torus.001",
            "primitives" : [
                {
                    "attributes" : {
                        "POSITION" : 0,
                        "NORMAL" : 1,
                        "TEXCOORD_0" : 2
                    },
                    "indices" : 3,
                    "material" : 0
                }
            ]
        },
        {
            "name" : "Torus.002",
            "primitives" : [
                {
                    "attributes" : {
                        "POSITION" : 4,
                        "NORMAL" : 5,
                        "TEXCOORD_0" : 6
                    },
                    "indices" : 7,
                    "material" : 1
                }
            ]
        }
    ],
    "accessors" : [
        {
            "bufferView" : 0,
            "componentType" : 5126,
            "count" : 1419,
            "max" : [
                0.07306722551584244,
                0.029039578512310982,
                0.07440429925918579
            ],
            "min" : [
                -0.07190174609422684,
                -0.0278579443693161,
                -0.07571439445018768
            ],
            "type" : "VEC3"
        },
        {
            "bufferView" : 1,
            "componentType" : 5126,
            "count" : 1419,
            "type" : "VEC3"
        },
        {
            "bufferView" : 2,
            "componentType" : 5126,
            "count" : 1419,
            "type" : "VEC2"
        },
        {
            "bufferView" : 3,
            "componentType" : 5123,
            "count" : 7920,
            "type" : "SCALAR"
        },
        {
            "bufferView" : 4,
            "componentType" : 5126,
            "count" : 2793,
            "max" : [
                0.0752841979265213,
                0.031166307628154755,
                0.07438357174396515
            ],
            "min" : [
                -0.07279513776302338,
                -0.007538583595305681,
                -0.07695837318897247
            ],
            "type" : "VEC3"
        },
        {
            "bufferView" : 5,
            "componentType" : 5126,
            "count" : 2793,
            "type" : "VEC3"
        },
        {
            "bufferView" : 6,
            "componentType" : 5126,
            "count" : 2793,
            "type" : "VEC2"
        },
        {
            "bufferView" : 7,
            "componentType" : 5123,
            "count" : 14742,
            "type" : "SCALAR"
        }
    ],
    "bufferViews" : [
        {
            "buffer" : 0,
            "byteLength" : 17028,
            "byteOffset" : 0
        },
        {
            "buffer" : 0,
            "byteLength" : 17028,
            "byteOffset" : 17028
        },
        {
            "buffer" : 0,
            "byteLength" : 11352,
            "byteOffset" : 34056
        },
        {
            "buffer" : 0,
            "byteLength" : 15840,
            "byteOffset" : 45408
        },
        {
            "buffer" : 0,
            "byteLength" : 33516,
            "byteOffset" : 61248
        },
        {
            "buffer" : 0,
            "byteLength" : 33516,
            "byteOffset" : 94764
        },
        {
            "buffer" : 0,
            "byteLength" : 22344,
            "byteOffset" : 128280
        },
        {
            "buffer" : 0,
            "byteLength" : 29484,
            "byteOffset" : 150624
        }
    ],
    "buffers" : [
        {
            "byteLength" : 180108,
            "uri" : "data:application/octet-stream;base64,"
        }
    ]
}
